<svg xmlns="http://www.w3.org/2000/svg" xmlns:xlink="http://www.w3.org/1999/xlink" version="1.1" width="128"
     height="128" viewBox="0 0 100 100">
  <defs>
    <linearGradient id="Gradient_2" gradientUnits="userSpaceOnUse" x1="50" y1="50" x2="50" y2="0" spreadMethod="pad">
      <stop offset="0%" stop-color="#FFFFFF" stop-opacity="0.7"/>
      <stop offset="100%" stop-color="#FFFFFF" stop-opacity="0.1"/>
    </linearGradient>
    <linearGradient id="Gradient_3" gradientUnits="userSpaceOnUse" x1="50" y1="75" x2="50" y2="0" spreadMethod="pad">
      <stop offset="0%" stop-color="#FFFFFF" stop-opacity="0.1"/>
      <stop offset="100%" stop-color="#FFFFFF" stop-opacity="0.7"/>
    </linearGradient>
    <g id="background">
      <path fill="url(#background-gradient)" stroke="none"
            d=" M 93.35 75 L 93.35 25 50 0 6.65 25 6.65 75 50 100 93.35 75 Z"/>
    </g>
    <mask id="mask">
      <path fill="#FFFFFF" stroke="none" d=" M 93.35 75 L 93.35 25 50 0 6.65 25 6.65 75 50 100 93.35 75 Z"/>
    </mask>
    <g id="gloss-top">
      <path fill="url(#Gradient_2)" stroke="none"
            d=" M 93.35 25.05 L 93.35 25 50 0 6.65 25 6.65 25.05 50 50 93.35 25.05 Z"/>
    </g>
    <g id="gloss-right">
      <path fill="url(#Gradient_3)" stroke="none" d=" M 93.35 75 L 93.35 25 50 0 6.65 25 93.35 75 Z"/>
    </g>
    <g id="gloss-left">
      <path fill="url(#Gradient_3)" stroke="none" d=" M 6.65 25 L 6.65 75 93.35 25 50 0 6.65 25 Z"/>
    </g>

    <linearGradient id="background-gradient" x1="0" y1="0" y2="1" x2="0">
      <stop stop-color="#ea018c" offset="0%"/>
      <stop stop-color="#782a90" offset="100%"/>
    </linearGradient>
    <g transform="scale(3.6900368484266663) translate(-1.5 -1.4499998092651367)" id="picture">
      <path
          d="M9.2 25.5h11.6c1.5 0 3-.6 4.1-1.7l2-2c1.1-1.1 1.7-2.5 1.7-4.1 0-1.4-.5-2.8-1.5-3.9l-4.7-5.1c-.4-.4-1.3-.5-1.8 0s-.5 1.3 0 1.8l.1.1c.2.2.2.5 0 .7-.2.2-.5.2-.7 0l-.1-.1-1.2-1.2c-.5-.5-1.3-.5-1.8 0s-.5 1.3 0 1.8l1.3 1.3c.2.2.2.5 0 .7s-.5.2-.7 0l-2.6-2.6c-.5-.5-1.3-.5-1.8 0s-.5 1.3 0 1.8l2.6 2.6c.2.2.2.5 0 .7s-.5.2-.7 0L8.7 10c-.3-.1-.6-.3-.9-.3s-.7.1-.9.4c-.2.2-.4.6-.4.9s.1.7.4.9l9.4 9.4c.1.1.2.3.1.5s-.2.3-.4.3l-6 1c-.8.1-1.4.8-1.4 1.6-.1.5.2.8.6.8z M4.9 15.1h-.2c-2-.9-3.2-2.9-3.2-5C1.5 7 4 4.5 7 4.5c2.2 0 4.1 1.3 5 3.2.1.3 0 .5-.3.7-.3.1-.5 0-.7-.3-.6-1.6-2.3-2.6-4-2.6-2.5 0-4.5 2-4.5 4.5 0 1.8 1 3.4 2.7 4.1.3.1.4.4.3.7-.2.1-.4.3-.6.3z"/>
    </g>

    <linearGradient id="picture-gradient" x1="0" y1="0" y2="1" x2="0">
      <stop stop-color="#ffffff" offset="0%"/>
      <stop stop-color="#e5eff9" offset="100%"/>
    </linearGradient>
  </defs>
  <use xlink:href="#background" fill="url(#background-gradient)"/>
  <g mask="url(#mask)">
    <g transform="
				        translate(
                                50 50
)
                            translate(0 0) rotate(25) scale(0.475)
                            translate(
                                -50 -50
)">
      <use xlink:href="#picture" fill="url(#picture-gradient)"/>
    </g>
  </g>


  <use xlink:href="#gloss-top" opacity="0.9"/>
</svg>
